# Rhino

v 7.11835241317749 -12.60544776916504 0
v 7.11835241317749 -12.60544776916504 4.699849128723145
v 7.942074298858643 -12.60544776916504 0
v 7.942074298858643 -12.60544776916504 4.699849128723145
v 7.942074298858643 -12.60544776916504 0
v 7.942074298858643 -12.60544776916504 4.699849128723145
v 7.942074298858643 0.1527321934700012 0
v 7.942074298858643 0.1527321934700012 4.699849128723145
v 7.942074298858643 0.1527321934700012 0
v 7.942074298858643 0.1527321934700012 4.699849128723145
v 7.11835241317749 0.1527321934700012 0
v 7.11835241317749 0.1527321934700012 4.699849128723145
v 7.11835241317749 0.1527321934700012 0
v 7.11835241317749 0.1527321934700012 4.699849128723145
v 7.11835241317749 -12.60544776916504 0
v 7.11835241317749 -12.60544776916504 4.699849128723145
v 7.11835241317749 -12.60544776916504 0
v 7.942074298858643 -12.60544776916504 0
v 7.11835241317749 0.1527321934700012 0
v 7.942074298858643 0.1527321934700012 0
v 7.11835241317749 -12.60544776916504 4.699849128723145
v 7.11835241317749 0.1527321934700012 4.699849128723145
v 7.942074298858643 -12.60544776916504 4.699849128723145
v 7.942074298858643 0.1527321934700012 4.699849128723145
vt 0.06488765031099319 0
vt 0.06488765031099319 0.3618668615818024
vt 0.1283104568719864 0
vt 0.1283104568719864 0.3618668615818024
vt 0.9976149797439575 0
vt 0.6297752857208252 0
vt 0.9976149797439575 0.99853515625
vt 0.6297752857208252 0.99853515625
vt 0 0
vt 0 0.3618668615818024
vt 0.06342280656099319 0
vt 0.06342280656099319 0.3618668615818024
vt 0.6273902654647827 0
vt 0.2595506012439728 0
vt 0.6273902654647827 0.99853515625
vt 0.2595506012439728 0.99853515625
vt 0.2580857574939728 0
vt 0.194662943482399 0
vt 0.2580857574939728 0.9823213815689087
vt 0.194662943482399 0.9823213815689087
vt 0.1297753006219864 0
vt 0.1297753006219864 0.9823213815689087
vt 0.193198099732399 0
vt 0.193198099732399 0.9823213815689087
vn 0 -1 0
vn 0 -1 0
vn 0 -1 0
vn 0 -1 0
vn 1 0 0
vn 1 0 0
vn 1 0 0
vn 1 0 0
vn 0 1 -0
vn 0 1 -0
vn 0 1 -0
vn 0 1 -0
vn -1 0 0
vn -1 0 0
vn -1 0 0
vn -1 0 0
vn 0 0 -1
vn 0 0 -1
vn 0 0 -1
vn 0 0 -1
vn 0 0 1
vn 0 0 1
vn 0 0 1
vn 0 0 1
f 1/1/1 3/3/3 2/2/2
f 4/4/4 2/2/2 3/3/3
f 5/5/5 7/7/7 8/8/8
f 8/8/8 6/6/6 5/5/5
f 9/9/9 11/11/11 10/10/10
f 12/12/12 10/10/10 11/11/11
f 13/13/13 15/15/15 16/16/16
f 16/16/16 14/14/14 13/13/13
f 18/18/18 17/17/17 19/19/19
f 20/20/20 18/18/18 19/19/19
f 21/21/21 23/23/23 24/24/24
f 24/24/24 22/22/22 21/21/21
v 0 0.1527321934700012 0
v 0 0.1527321934700012 9.133787155151367
v 5.948586463928223 5.414943218231201 0
v 5.948586463928223 5.414943218231201 9.133787155151367
v 5.948586463928223 5.414943218231201 0
v 5.948586463928223 5.414943218231201 9.133787155151367
v 1.293553590774536 10.67715454101562 0
v 1.293553590774536 10.67715454101562 9.133787155151367
v 1.293553590774536 10.67715454101562 0
v 1.293553590774536 10.67715454101562 9.133787155151367
v -4.655032634735107 5.414943218231201 0
v -4.655032634735107 5.414943218231201 9.133787155151367
v -4.655032634735107 5.414943218231201 0
v -4.655032634735107 5.414943218231201 9.133787155151367
v 0 0.1527321934700012 0
v 0 0.1527321934700012 9.133787155151367
v 0 0.1527321934700012 0
v 5.948586463928223 5.414943218231201 0
v -4.655032634735107 5.414943218231201 0
v 1.293553590774536 10.67715454101562 0
v 0 0.1527321934700012 9.133787155151367
v -4.655032634735107 5.414943218231201 9.133787155151367
v 5.948586463928223 5.414943218231201 9.133787155151367
v 1.293553590774536 10.67715454101562 9.133787155151367
vt 0.3924850523471832 0.5
vt 0 0.5
vt 0.3924850523471832 0.8412763476371765
vt 0 0.8412763476371765
vt 0.6969749331474304 0.4651053249835968
vt 0.6969749331474304 0.8571508526802063
vt 0.99853515625 0.4651053249835968
vt 0.99853515625 0.8571508526802063
vt 0.3924850523471832 0
vt 0 0
vt 0.3924850523471832 0.3412763476371765
vt 0 0.3412763476371765
vt 0.3939498960971832 0.4651053249835968
vt 0.3939498960971832 0.8571508526802063
vt 0.6955100893974304 0.4651053249835968
vt 0.6955100893974304 0.8571508526802063
vt 0.6969749331474304 0
vt 0.6969749331474304 0.3408941328525543
vt 0.99853515625 0
vt 0.99853515625 0.3408941328525543
vt 0.6955100893974304 0
vt 0.3939498960971832 0
vt 0.6955100893974304 0.3408941328525543
vt 0.3939498960971832 0.3408941328525543
vn 0.6625738739967346 -0.7489965558052063 0
vn 0.6625738739967346 -0.7489965558052063 0
vn 0.6625738739967346 -0.7489965558052063 0
vn 0.6625738739967346 -0.7489965558052063 0
vn 0.7489965558052063 0.6625738739967346 -0
vn 0.7489965558052063 0.6625738739967346 -0
vn 0.7489965558052063 0.6625738739967346 -0
vn 0.7489965558052063 0.6625738739967346 -0
vn -0.6625738739967346 0.7489965558052063 0
vn -0.6625738739967346 0.7489965558052063 0
vn -0.6625738739967346 0.7489965558052063 0
vn -0.6625738739967346 0.7489965558052063 0
vn -0.7489965558052063 -0.6625738739967346 0
vn -0.7489965558052063 -0.6625738739967346 0
vn -0.7489965558052063 -0.6625738739967346 0
vn -0.7489965558052063 -0.6625738739967346 0
vn 0 0 -1
vn 0 0 -1
vn 0 0 -1
vn 0 0 -1
vn 0 -0 1
vn 0 -0 1
vn 0 -0 1
vn 0 -0 1
f 25/25/25 27/27/27 28/28/28
f 28/28/28 26/26/26 25/25/25
f 29/29/29 31/31/31 32/32/32
f 32/32/32 30/30/30 29/29/29
f 33/33/33 35/35/35 36/36/36
f 36/36/36 34/34/34 33/33/33
f 37/37/37 39/39/39 40/40/40
f 40/40/40 38/38/38 37/37/37
f 42/42/42 41/41/41 43/43/43
f 44/44/44 42/42/42 43/43/43
f 45/45/45 47/47/47 48/48/48
f 48/48/48 46/46/46 45/45/45
