<?xml version="1.0" encoding="utf-8"?>
<!-- Generator: Adobe Illustrator 14.0.0, SVG Export Plug-In . SVG Version: 6.00 Build 43363)  -->
<!DOCTYPE svg PUBLIC "-//W3C//DTD SVG 1.0//EN" "http://www.w3.org/TR/2001/REC-SVG-20010904/DTD/svg10.dtd">
<svg version="1.0" id="Layer_1" xmlns="http://www.w3.org/2000/svg" xmlns:xlink="http://www.w3.org/1999/xlink" x="0px" y="0px"
	 width="612px" height="792px" viewBox="0 0 612 792" enable-background="new 0 0 612 792" xml:space="preserve">
<path id="middle" opacity="0.25" fill="#3A52A3" d="M330.476,409.643c0,5.964-4.835,10.799-10.8,10.799h-27.527
	c-5.965,0-10.801-4.835-10.801-10.799v-27.527c0-5.965,4.836-10.8,10.801-10.8h27.527c5.965,0,10.8,4.835,10.8,10.8V409.643z"/>
<path id="middle_on" opacity="0.25" fill="#3A52A3" d="M329.248,408.954c0,5.666-4.594,10.259-10.26,10.259h-26.151
	c-5.667,0-10.261-4.593-10.261-10.259v-26.151c0-5.667,4.594-10.26,10.261-10.26h26.151c5.666,0,10.26,4.594,10.26,10.26V408.954z"
	/>
<path id="right" opacity="0.25" fill="#ED2224" d="M321.205,368.586h-15.293v2.729h13.764c5.965,0,10.8,4.835,10.8,10.8v27.527
	c0,5.964-4.835,10.799-10.8,10.799h-13.764v2.73h15.293c6.627,0,12-5.373,12-12v-30.586
	C333.205,373.958,327.832,368.586,321.205,368.586z"/>
<path id="left" opacity="0.25" fill="#8EC73F" d="M292.148,420.441c-5.965,0-10.801-4.835-10.801-10.799v-27.527
	c0-5.965,4.836-10.8,10.801-10.8h13.764v-2.729h-15.293c-6.627,0-12,5.373-12,12v30.586c0,6.627,5.373,12,12,12h15.293v-2.73
	H292.148z"/>
</svg>
