<?xml version="1.0" encoding="utf-8"?>
<!-- Generator: Adobe Illustrator 14.0.0, SVG Export Plug-In . SVG Version: 6.00 Build 43363)  -->
<!DOCTYPE svg PUBLIC "-//W3C//DTD SVG 1.1//EN" "http://www.w3.org/Graphics/SVG/1.1/DTD/svg11.dtd">
<svg version="1.1" id="Layer_1" xmlns="http://www.w3.org/2000/svg" xmlns:xlink="http://www.w3.org/1999/xlink" x="0px" y="0px"
	 width="1728px" height="864px" viewBox="0 0 1728 864" enable-background="new 0 0 1728 864" xml:space="preserve">
<path id="outline" d="M1678.937,135.547c-2.731-4.299-5.632-8.504-8.619-12.499c-17.732-23.704-40.936-43.347-67.102-56.804
	c-27.488-14.138-57.192-21.307-88.288-21.307H213.399c-18.902,0-37.741,2.788-55.993,8.287
	c-39.12,11.77-74.288,36.285-99.027,69.028C32.798,156.11,19.277,196.501,19.277,239.06v387.12
	c0,44.99,15.754,88.848,44.361,123.493c36.941,44.761,91.32,70.488,149.261,70.635v0.016h1302.028
	c107.044,0,194.13-87.08,194.13-194.144V239.053C1709.058,202.408,1698.642,166.616,1678.937,135.547z M1669.071,260.893v343.468
	c0,97.033-78.949,175.976-175.99,175.976H235.746l-0.5-0.014c-52.701,0-102.187-23.338-135.768-64.029
	c-25.933-31.412-40.215-71.173-40.215-111.96V260.9c0-80.582,54.609-150.658,132.799-170.412c14.6-3.692,29.129-5.564,43.183-5.564
	h1257.85c9.254,0,18.922,0.874,29.558,2.672c0.819,0.139,1.647,0.251,2.477,0.363c1.137,0.154,2.312,0.313,3.432,0.541
	c9.29,1.902,18.674,4.736,28.687,8.663c13.712,5.378,26.769,12.522,38.807,21.232
	C1641.775,151.489,1669.071,204.759,1669.071,260.893z"/>
<g id="x">
	<g>
		<g>
			<path d="M474.91,274.255c-87.319-87.312-228.89-87.312-316.204,0c-87.312,87.311-87.311,228.88,0,316.191
				c87.314,87.306,228.884,87.306,316.204,0C562.241,503.132,562.241,361.566,474.91,274.255z M430.643,546.173
				c-62.872,62.867-164.806,62.867-227.671,0.005c-62.863-62.867-62.863-164.792,0-227.655c62.866-62.867,164.8-62.866,227.671,0
				C493.513,381.385,493.513,483.311,430.643,546.173z"/>
			<path d="M316.806,656.426c-59.856,0-116.13-23.307-158.453-65.626c-42.322-42.322-65.63-98.594-65.63-158.449
				s23.308-116.127,65.63-158.449c42.323-42.322,98.597-65.63,158.453-65.63c59.857,0,116.132,23.308,158.458,65.63
				c42.332,42.322,65.645,98.593,65.645,158.448c0,59.855-23.313,116.127-65.645,158.451
				C432.937,633.119,376.663,656.426,316.806,656.426L316.806,656.426z M316.806,209.271c-59.589,0-115.611,23.204-157.746,65.337
				c-42.133,42.133-65.337,98.154-65.337,157.742c0,59.588,23.204,115.608,65.337,157.742
				c42.135,42.131,98.157,65.333,157.746,65.333c59.59,0,115.613-23.202,157.75-65.333c42.143-42.135,65.352-98.156,65.352-157.744
				s-23.209-115.607-65.352-157.741C432.419,232.475,376.396,209.271,316.806,209.271L316.806,209.271z M316.803,593.824
				c-43.135,0-83.686-16.796-114.185-47.293c-62.958-62.962-62.958-165.405,0-228.362c30.499-30.5,71.051-47.296,114.187-47.296
				c43.136,0,83.69,16.797,114.192,47.296c30.501,30.498,47.299,71.047,47.299,114.179c0,43.131-16.798,83.681-47.299,114.178
				C400.494,577.026,359.939,593.824,316.803,593.824L316.803,593.824z M316.805,271.873c-42.868,0-83.169,16.693-113.479,47.003
				c-62.568,62.567-62.568,164.375,0,226.948c30.31,30.309,70.61,47,113.478,47c42.87,0,83.173-16.693,113.487-47.005
				c30.312-30.309,47.006-70.606,47.006-113.471s-16.694-83.163-47.006-113.472C399.976,288.566,359.673,271.873,316.805,271.873
				L316.805,271.873z"/>
		</g>
	</g>
	<g>
		<polygon points="380.643,320.823 316.803,384.658 252.966,320.823 205.275,368.512 269.11,432.347 205.275,496.185 
			252.966,543.872 316.803,480.044 380.647,543.872 428.337,496.185 364.497,432.347 428.337,368.516 		"/>
		<path d="M252.966,544.579l-48.397-48.395l63.834-63.838l-63.834-63.834l48.397-48.396l63.837,63.834l63.84-63.834l48.401,48.4
			l-63.84,63.831l63.84,63.838l-48.397,48.395l-63.844-63.828L252.966,544.579L252.966,544.579z M316.803,479.337l63.844,63.828
			l46.983-46.98l-63.84-63.838l63.84-63.831l-46.987-46.986l-63.84,63.834l-63.837-63.834l-46.983,46.982l63.834,63.834
			l-63.834,63.838l46.983,46.98L316.803,479.337L316.803,479.337z"/>
	</g>
</g>
<g id="clear">
	<path d="M818.685,225.939h-58.42v374.987c0,16.932,12.285,29.221,29.21,29.221h149.268v-58.42H818.685V225.939z"/>
	<path d="M955.976,257.552v343.375c0,16.932,12.284,29.221,29.21,29.221h149.271v-58.42h-120.061V452.44h108.059v-58.415h-108.059
		V286.762h120.061v-58.42H985.186C968.26,228.342,955.976,240.626,955.976,257.552z"/>
	<path d="M1272.146,225.94c-13.64,0-24.739,8.567-28.254,21.745l-105.499,382.462h60.889l9.756-35.756l0.041-0.153
		c0.214-0.839,0.43-1.684,0.645-2.538l11.834-43.198h101.178l11.474,42.055l0.36,1.144c0.215,0.854,0.431,1.699,0.645,2.538
		l9.797,35.909h60.889l-105.477-382.38C1296.885,234.508,1285.785,225.94,1272.146,225.94z M1295.589,449.837
		c3.66,13.541,7.32,27.085,10.896,40.245h-68.678c3.575-13.16,7.235-26.704,10.896-40.245c8.01-29.638,16.205-59.958,23.443-85.994
		C1279.384,389.879,1287.579,420.199,1295.589,449.837z"/>
	<path d="M662.811,228.368c-3.847,0.059-7.787,0.358-11.742,0.894l-0.994,0.137c-4.315,0.634-8.509,1.523-12.434,2.633
		c-44.947,12.556-75.146,51.888-75.146,97.874v198.673c0,45.982,30.198,85.316,75.112,97.869c3.958,1.12,8.032,1.984,12.453,2.641
		l1.038,0.144c3.922,0.532,7.864,0.831,11.72,0.89c0.244,0.017,0.489,0.025,0.739,0.025h79.524v-58.733H669l-0.936,0.044
		c-5.317,0.501-10.52,0.052-15.414-1.329c-18.982-5.354-31.736-21.992-31.736-41.404V329.765c0-19.412,12.753-36.051,31.738-41.404
		c4.889-1.38,10.091-1.829,15.413-1.329l75.016,0.044v-58.734h-79.524C663.306,228.342,663.058,228.351,662.811,228.368z"/>
	<path d="M1608.148,592.756c-0.252-0.786-0.539-1.561-0.856-2.311l-51.94-140.016c33.008-17.391,53.854-51.661,53.854-89.791v-33.62
		c0-55.827-45.424-101.246-101.257-101.246h-72.035c-16.373,0-29.199,12.831-29.199,29.21V629.98h58.42V461.885h32.264
		l55.211,148.953l0.136,0.347c0.015,0.034,0.029,0.068,0.043,0.102l6.93,18.694h62.239L1608.148,592.756z M1550.785,327.019v33.62
		c0,24.014-18.815,42.825-42.836,42.825h-42.814V284.193h42.814C1531.569,284.193,1550.785,303.404,1550.785,327.019z"/>
</g>
</svg>
