<?xml version="1.0" encoding="utf-8"?>
<!-- Generator: Adobe Illustrator 14.0.0, SVG Export Plug-In . SVG Version: 6.00 Build 43363)  -->
<!DOCTYPE svg PUBLIC "-//W3C//DTD SVG 1.1//EN" "http://www.w3.org/Graphics/SVG/1.1/DTD/svg11.dtd">
<svg version="1.1" id="Layer_1" xmlns="http://www.w3.org/2000/svg" xmlns:xlink="http://www.w3.org/1999/xlink" x="0px" y="0px"
	 width="1728px" height="864px" viewBox="0 0 1728 864" enable-background="new 0 0 1728 864" xml:space="preserve">
<path id="backfill" d="M1678.938,135.547c-2.729-4.299-5.633-8.504-8.615-12.499c-17.732-23.704-40.938-43.347-67.104-56.804
	c-27.487-14.138-57.19-21.307-88.288-21.307H213.399c-18.902,0-37.741,2.788-55.993,8.287c-39.12,11.77-74.288,36.285-99.027,69.028
	C32.798,156.11,19.277,196.501,19.277,239.06v387.12c0,44.99,15.754,88.853,44.361,123.493
	c36.941,44.761,91.32,70.488,149.261,70.635v0.021h1302.028c107.044,0,194.13-87.08,194.13-194.146V239.053
	C1709.058,202.408,1698.642,166.616,1678.938,135.547z"/>
<path id="circle" fill="#CC3333" d="M474.91,274.255c-87.319-87.312-228.89-87.312-316.204,0
	c-87.312,87.312-87.311,228.88,0,316.191c87.314,87.306,228.884,87.306,316.204,0C562.241,503.132,562.241,361.566,474.91,274.255z
	 M430.643,546.173c-62.872,62.867-164.806,62.867-227.667,0.005c-62.863-62.867-62.863-164.792,0-227.65
	c62.866-62.868,164.8-62.866,227.667,0C493.513,381.385,493.513,483.311,430.643,546.173z"/>
<polygon id="X" fill="#CC3333" points="380.643,320.823 316.803,384.658 252.966,320.823 205.275,368.512 269.11,432.347 
	205.275,496.185 252.966,543.872 316.803,480.044 380.647,543.872 428.337,496.185 364.497,432.347 428.337,368.516 "/>
<path id="outline" fill="#CC3333" d="M1678.938,135.547c-2.729-4.299-5.633-8.504-8.615-12.499
	c-17.732-23.704-40.938-43.347-67.104-56.804c-27.487-14.138-57.19-21.307-88.288-21.307H213.399
	c-18.902,0-37.741,2.788-55.993,8.287c-39.12,11.77-74.288,36.285-99.027,69.028C32.798,156.11,19.277,196.501,19.277,239.06v387.12
	c0,44.99,15.754,88.853,44.361,123.493c36.941,44.761,91.32,70.488,149.261,70.635v0.021h1302.028
	c107.044,0,194.13-87.08,194.13-194.146V239.053C1709.058,202.408,1698.642,166.616,1678.938,135.547z M1669.071,260.893v343.468
	c0,97.028-78.949,175.976-175.99,175.976H235.746l-0.5-0.014c-52.701,0-102.187-23.338-135.768-64.029
	c-25.933-31.412-40.215-71.173-40.215-111.96V260.9c0-80.582,54.609-150.658,132.799-170.412c14.6-3.692,29.129-5.564,43.183-5.564
	h1257.85c9.254,0,18.922,0.874,29.562,2.672c0.814,0.139,1.646,0.251,2.477,0.363c1.14,0.154,2.312,0.313,3.437,0.541
	c9.287,1.902,18.674,4.736,28.687,8.663c13.712,5.378,26.771,12.522,38.81,21.232
	C1641.775,151.489,1669.071,204.759,1669.071,260.893z"/>
<path id="L" fill="#CC3333" d="M818.686,225.939h-58.421v374.987c0,16.937,12.285,29.226,29.21,29.226h149.271v-58.425H818.686
	V225.939z"/>
<path id="E" fill="#CC3333" d="M955.977,257.552v343.375c0,16.937,12.283,29.226,29.209,29.226h149.271v-58.424h-120.061V452.44
	h108.059v-58.415h-108.059V286.762h120.061v-58.42H985.186C968.26,228.342,955.977,240.626,955.977,257.552z"/>
<path id="A" fill="#CC3333" d="M1300.428,247.77c-3.543-13.262-14.643-21.83-28.281-21.83c-13.644,0-24.738,8.567-28.258,21.745
	L1138.39,630.146h60.894l9.756-35.76l0.041-0.148c0.214-0.839,0.43-1.688,0.645-2.538l11.834-43.198h101.183l11.474,42.055
	l0.36,1.146c0.215,0.854,0.431,1.699,0.645,2.538l9.797,35.909h60.894L1300.428,247.77z M1237.804,490.082
	c3.575-13.16,7.235-26.704,10.896-40.245c8.01-29.638,16.205-59.958,23.439-85.994c7.243,26.036,15.438,56.356,23.448,85.994
	c3.66,13.541,7.32,27.085,10.896,40.245H1237.804L1237.804,490.082z"/>
<path id="C" fill="#CC3333" d="M662.811,228.368c-3.847,0.059-7.782,0.358-11.737,0.894l-0.994,0.137
	c-4.315,0.634-8.509,1.523-12.438,2.633c-44.942,12.556-75.146,51.888-75.146,97.874v198.673c0,45.979,30.198,85.312,75.112,97.869
	c3.953,1.12,8.027,1.979,12.448,2.641l1.038,0.146c3.922,0.527,7.864,0.831,11.725,0.89c0.239,0.017,0.484,0.025,0.734,0.025h79.524
	v-58.733H669l-0.936,0.044c-5.317,0.501-10.521,0.052-15.414-1.329c-18.982-5.354-31.736-21.992-31.736-41.399V329.765
	c0-19.411,12.753-36.051,31.738-41.404c4.889-1.38,10.091-1.829,15.413-1.329l75.016,0.044v-58.734h-79.524
	C663.306,228.342,663.058,228.351,662.811,228.368z"/>
<path id="R" fill="#CC3333" d="M1608.148,592.756c-0.252-0.786-0.539-1.561-0.856-2.311l-51.94-140.021
	c33.013-17.391,53.854-51.661,53.854-89.791v-33.62c0-55.827-45.424-101.246-101.257-101.246h-72.035
	c-16.373,0-29.199,12.831-29.199,29.21v375h58.42V461.885h32.269l55.211,148.953l0.136,0.347c0.015,0.034,0.029,0.068,0.043,0.104
	l6.93,18.693h62.239L1608.148,592.756z M1550.785,360.639c0,24.019-18.815,42.825-42.836,42.825h-42.814V284.193h42.814
	c23.62,0,42.836,19.211,42.836,42.826V360.639L1550.785,360.639z"/>
</svg>
